<?xml version="1.0" standalone="no"?>
<!DOCTYPE svg PUBLIC "-//W3C//DTD SVG 20010904//EN"
 "http://www.w3.org/TR/2001/REC-SVG-20010904/DTD/svg10.dtd">
<svg version="1.0" xmlns="http://www.w3.org/2000/svg"
 width="500.000000pt" height="500.000000pt" viewBox="0 0 500.000000 500.000000"
 preserveAspectRatio="xMidYMid meet">

<g transform="translate(0.000000,500.000000) scale(0.100000,-0.100000)"
fill="#000000" stroke="none">
<path d="M3301 3467 c-6 -8 -18 -52 -26 -98 -20 -115 -46 -216 -106 -404 -28
-88 -66 -207 -84 -265 -63 -198 -55 -280 31 -309 39 -14 44 -13 90 10 35 17
54 35 68 62 10 21 15 41 12 44 -4 4 -22 1 -41 -6 -108 -39 -101 36 45 459 120
347 142 459 98 500 -25 23 -70 26 -87 7z"/>
<path d="M4064 3439 c-17 -5 -39 -18 -50 -30 -19 -21 -18 -21 19 1 30 18 48
22 93 18 61 -5 98 -27 129 -76 22 -34 35 -40 35 -17 0 22 -61 86 -97 101 -36
16 -83 17 -129 3z"/>
<path d="M4378 3395 c-16 -9 -28 -17 -28 -19 0 -1 24 -1 53 2 108 9 193 -69
191 -177 0 -66 -19 -105 -77 -162 l-42 -42 41 31 c78 59 124 158 110 234 -8
43 -41 93 -78 121 -36 27 -132 34 -170 12z"/>
<path d="M337 3390 c-91 -17 -156 -98 -143 -178 7 -45 23 -62 56 -62 22 0 30
7 42 39 9 21 28 47 43 57 51 33 195 39 195 8 0 -8 -13 -38 -29 -67 -16 -28
-49 -107 -72 -175 l-42 -124 -53 -26 c-29 -14 -56 -32 -59 -40 -8 -22 16 -44
42 -39 19 4 23 0 23 -22 0 -37 -101 -237 -145 -288 -40 -47 -42 -76 -6 -81 84
-12 215 147 295 360 l24 63 123 5 124 5 0 34 c0 51 -47 76 -137 74 -46 -2 -68
2 -68 9 0 16 37 149 67 241 l25 79 77 -7 c129 -11 195 20 208 99 6 41 7 41
-40 21 -45 -19 -143 -19 -278 -1 -149 20 -228 25 -272 16z"/>
<path d="M2916 3360 c-63 -19 -90 -75 -62 -129 21 -39 50 -54 91 -47 47 9 85
57 85 106 0 39 -20 70 -45 70 -7 0 -19 2 -27 4 -7 2 -26 0 -42 -4z"/>
<path d="M1174 3046 c-113 -35 -253 -186 -299 -321 -22 -67 -30 -170 -16 -222
43 -158 213 -157 326 1 19 27 35 47 35 44 0 -36 25 -117 42 -135 59 -63 185
-19 213 75 6 22 5 23 -44 16 -67 -9 -81 3 -81 68 0 55 35 153 116 326 29 62
51 119 48 126 -5 14 -46 36 -66 36 -6 0 -28 -16 -50 -36 l-40 -36 -27 25 c-28
27 -71 47 -99 46 -9 0 -35 -6 -58 -13z m114 -86 c36 -34 36 -60 -1 -152 -66
-167 -169 -313 -234 -332 -83 -25 -86 170 -5 329 37 73 71 115 121 147 53 33
89 36 119 8z"/>
<path d="M1712 3046 c-42 -20 -50 -41 -23 -70 11 -12 21 -31 21 -42 0 -49 -63
-226 -135 -380 -25 -53 -45 -105 -45 -114 0 -37 69 -71 97 -48 9 7 40 63 68
123 52 111 91 165 218 307 99 112 160 145 173 94 7 -31 -15 -90 -99 -266 -101
-212 -104 -235 -35 -259 43 -15 54 -3 111 127 70 158 271 422 321 422 22 0 35
-29 26 -59 -4 -14 -22 -55 -40 -91 -59 -116 -82 -190 -83 -265 -2 -88 15 -119
73 -135 67 -18 149 28 166 94 6 27 5 29 -17 22 -54 -17 -70 -18 -85 -5 -27 22
-11 86 60 241 56 123 66 154 66 200 0 48 -4 58 -31 84 -25 23 -39 29 -74 28
-54 -1 -94 -30 -166 -117 -46 -55 -129 -142 -129 -135 0 2 9 27 20 56 51 135
-8 232 -115 188 -51 -22 -78 -45 -141 -123 -31 -37 -74 -86 -96 -108 l-39 -39
31 69 c41 91 50 163 22 188 -27 25 -80 30 -120 13z"/>
<path d="M2810 3053 c-8 -3 -25 -15 -37 -25 l-22 -20 21 -29 c29 -39 21 -83
-46 -252 -73 -182 -85 -240 -61 -290 42 -90 187 -63 220 42 7 23 6 23 -37 17
-90 -13 -89 23 5 246 78 186 87 212 87 254 0 23 -7 38 -22 48 -22 16 -78 20
-108 9z"/>
<path d="M3563 3045 c-25 -11 -33 -20 -33 -40 0 -14 4 -25 10 -25 18 0 22 -47
6 -98 -8 -28 -38 -103 -66 -167 -101 -229 -91 -328 33 -328 77 0 155 59 259
196 32 42 60 77 62 77 2 0 0 -22 -5 -49 -10 -67 -88 -256 -133 -323 -48 -73
-154 -173 -199 -187 -44 -15 -53 -36 -24 -56 29 -21 53 -19 113 9 101 47 210
186 293 374 60 135 213 568 209 590 -2 9 -16 23 -32 31 -25 12 -31 11 -55 -6
-14 -11 -63 -87 -108 -169 -134 -244 -277 -404 -335 -373 -10 5 -18 16 -18 24
0 8 31 88 70 177 74 173 105 276 95 308 -8 24 -54 50 -87 50 -13 -1 -38 -7
-55 -15z"/>
<path d="M4346 2915 c-56 -39 -116 -95 -116 -108 0 -6 24 12 53 39 28 27 68
61 87 76 49 38 35 34 -24 -7z"/>
<path d="M3154 2115 c-101 -50 -201 -183 -228 -305 -40 -174 5 -260 135 -260
84 0 159 39 159 82 0 25 -15 23 -56 -8 -46 -36 -112 -43 -137 -16 -48 53 -41
176 17 298 55 115 127 184 195 184 24 0 32 -5 37 -25 10 -40 -3 -73 -46 -114
-46 -44 -51 -68 -16 -77 34 -8 63 11 97 64 46 73 37 157 -20 187 -42 21 -79
19 -137 -10z"/>
<path d="M3532 1930 c-100 -22 -192 -147 -195 -266 -2 -74 24 -108 83 -112 39
-3 46 0 86 43 34 34 44 41 44 27 0 -11 9 -31 21 -46 25 -32 66 -34 103 -5 35
28 34 47 -3 41 -22 -3 -32 1 -40 17 -15 28 -1 80 50 190 21 46 39 89 39 96 0
21 -31 26 -58 9 -18 -12 -30 -14 -46 -6 -35 17 -50 19 -84 12z m63 -53 c14
-21 13 -29 -4 -79 -51 -149 -130 -233 -171 -183 -29 35 13 180 68 239 47 49
84 57 107 23z"/>
<path d="M4310 1930 c-112 -32 -192 -138 -194 -257 -1 -61 1 -66 32 -94 27
-25 41 -29 87 -29 68 0 118 20 141 55 25 38 5 51 -35 21 -18 -13 -49 -27 -69
-31 -32 -6 -40 -3 -59 20 -13 14 -23 37 -23 49 0 20 6 24 48 30 110 14 192 82
192 159 0 61 -55 96 -120 77z m45 -54 c11 -17 13 -30 6 -48 -21 -56 -112 -120
-145 -101 -14 8 -12 16 13 68 28 59 51 87 81 98 25 9 29 8 45 -17z"/>
<path d="M3834 1916 c-3 -8 0 -24 6 -36 13 -24 -13 -130 -55 -225 -29 -67 -31
-90 -9 -99 32 -12 42 -4 69 62 40 93 87 171 128 210 31 30 36 32 60 21 36 -16
59 3 55 45 -3 27 -7 31 -36 34 -28 3 -39 -3 -69 -35 -20 -21 -50 -56 -66 -78
-17 -22 -27 -31 -23 -20 19 52 29 103 23 118 -8 22 -75 23 -83 3z"/>
</g>
</svg>
